# xmcd
#
# Track frame offsets: 
#        150
#        18022
#        36241
#        48426
#        67507
#        73423
#        88757
#        100065
#        112779
#
# Disc length: 1732 seconds
#
# Revision: 0
# Processed by: cddbd v1.5.2PL0 Copyright (c) Steve Scherf et al.
# Submitted via: ExactAudioCopy v1.0b3
#
DISCID=6806c209
DTITLE=The Reverend Shawn Amos - Breaks It Down
DYEAR=2018
DGENRE=Soul
TTITLE0=Moved
TTITLE1=2017
TTITLE2=Hold Hands
TTITLE3=The Jean Genie
TTITLE4=Uncle Tom's Prayer
TTITLE5=Does My Life Matter
TTITLE6=(We've Got To) Come Together
TTITLE7=Ain't Gonna Name Names
TTITLE8=Peace, Love And Understanding
EXTD=
EXTT0=
EXTT1=
EXTT2=
EXTT3=
EXTT4=
EXTT5=
EXTT6=
EXTT7=
EXTT8=
PLAYORDER=
